<svg xmlns="http://www.w3.org/2000/svg" width="34" height="33.818" viewBox="0 0 34 33.818"><defs><style>.a{fill:#fff;}.b{fill:#d10019;font-size:12px;font-family:Almanach-Bold, Almanach;font-weight:700;}</style></defs><g transform="translate(-1596 -37)"><g transform="translate(1596 39.5)"><circle class="a" cx="1.455" cy="1.455" r="1.455" transform="translate(10.182 28.409)"/><circle class="a" cx="1.455" cy="1.455" r="1.455" transform="translate(23.273 28.409)"/><path class="a" d="M31.855,7.536a.826.826,0,0,0-.582-.218H9.455a.687.687,0,0,0-.727.727.687.687,0,0,0,.727.727H30.4L28.655,20.627A1.425,1.425,0,0,1,27.2,21.864H9.309L6.036,3.318A2.187,2.187,0,0,0,3.855,1.5H2.182A2.143,2.143,0,0,0,0,3.682a.687.687,0,0,0,.727.727.687.687,0,0,0,.727-.727.687.687,0,0,1,.727-.727H3.855a.708.708,0,0,1,.727.582L7.927,22.3a3,3,0,0,0-1.382,2.473,2.918,2.918,0,0,0,2.909,2.909H28.364a.727.727,0,1,0,0-1.455H9.455a1.455,1.455,0,0,1,0-2.909H27.2a2.9,2.9,0,0,0,2.909-2.473L32,8.118A2.248,2.248,0,0,0,31.855,7.536Z"/><path class="a" d="M14.727,20.045a.727.727,0,1,0,0,1.455h2.909v1.455a.727.727,0,1,0,1.455,0V21.5H22v1.455a.727.727,0,1,0,1.455,0V21.5h2.909v1.455a.727.727,0,1,0,1.455,0V21.5h2.909a.727.727,0,1,0,0-1.455H27.818V17.136h2.909a.727.727,0,1,0,0-1.455H27.818V14.227a.727.727,0,0,0-1.455,0v1.455H23.455V14.227a.727.727,0,0,0-1.455,0v1.455H19.091V14.227a.727.727,0,0,0-1.455,0v1.455H14.727a.727.727,0,1,0,0,1.455h2.909v2.909Zm11.636-2.909v2.909H23.455V17.136Zm-7.273,0H22v2.909H19.091Z" transform="translate(-3.818 -3.273)"/></g></g></svg>
