<svg xmlns="http://www.w3.org/2000/svg" width="16" height="16" viewBox="0 0 16 16"><defs><style>.a{fill:none;}.b{fill-rule:evenodd;opacity:0.3;}</style></defs><rect class="a" width="16" height="16"/><path class="b" d="M29845.3,832.747a6.4,6.4,0,0,0-.6-.408,22.31,22.31,0,0,1-1.9-1.453,20.407,20.407,0,0,1-2.1-2.149,6.937,6.937,0,0,1-1.3-2.842,3.708,3.708,0,0,1,.7-3.378,3.834,3.834,0,0,1,3.1-1.412,4.959,4.959,0,0,1,3,1.091c.1.019.1.038.1.058,0-.02.1-.039.1-.058a5.224,5.224,0,0,1,3-1.091,3.978,3.978,0,0,1,3.9,4.847,7.214,7.214,0,0,1-1.5,2.781,13.628,13.628,0,0,1-2,2.137,23.178,23.178,0,0,1-1.9,1.456,5.214,5.214,0,0,1-.6.409,2.285,2.285,0,0,1-1,.3A2.262,2.262,0,0,1,29845.3,832.747Z" transform="translate(-29838.266 -819.105)"/></svg>