<svg xmlns="http://www.w3.org/2000/svg" width="24.545" height="30" viewBox="0 0 24.545 30"><defs><style>.a{fill:#fff;}</style></defs><g transform="translate(-75)"><path class="a" d="M83.682,6.818a.682.682,0,0,0,.682-.682V3.409a2.048,2.048,0,0,1,2.045-2.045h6.818a2.048,2.048,0,0,1,2.045,2.045V5.455H86.409a.682.682,0,0,0,0,1.364h9.545a.682.682,0,0,0,.682-.682V3.409A3.413,3.413,0,0,0,93.227,0H86.409A3.413,3.413,0,0,0,83,3.409V6.136A.682.682,0,0,0,83.682,6.818Z" transform="translate(-2.545)"/><circle class="a" cx="0.682" cy="0.682" r="0.682" transform="translate(84.545 8.864)"/><circle class="a" cx="0.682" cy="0.682" r="0.682" transform="translate(88.636 8.864)"/><path class="a" d="M96.746,28.968,91.7,28.05a3.021,3.021,0,0,0-.551-.05h-.389a2.253,2.253,0,0,0-1.766.848,2.2,2.2,0,0,1-3.441,0A2.251,2.251,0,0,0,83.787,28h-.462a2.247,2.247,0,0,0-.4.037l-5.121.931A3.409,3.409,0,0,0,75,32.321v4.542a2.048,2.048,0,0,0,2.045,2.045H94.773a.682.682,0,1,0,0-1.364H77.045a.682.682,0,0,1-.682-.682V32.321a2.045,2.045,0,0,1,1.679-2.013l5.118-.931a1,1,0,0,1,.163-.014h.462a.9.9,0,0,1,.7.337,3.565,3.565,0,0,0,5.57,0,.9.9,0,0,1,.7-.337h.389a1.713,1.713,0,0,1,.305.027l5.048.918a2.045,2.045,0,0,1,1.68,2.013v4.542a.682.682,0,0,1-.682.682.682.682,0,1,0,0,1.364,2.048,2.048,0,0,0,2.045-2.045V32.321A3.409,3.409,0,0,0,96.746,28.968Z" transform="translate(0 -8.909)"/><path class="a" d="M91.682,20.364h1.364a.682.682,0,1,0,0-1.364H91.682a.682.682,0,0,0,0,1.364Z" transform="translate(-5.091 -6.045)"/><path class="a" d="M82.682,14.727a.682.682,0,0,0,.293-.066l.05.8a6.488,6.488,0,0,0,12.95,0l.05-.8A.682.682,0,0,0,97,14.045V12.682A.682.682,0,0,0,96.318,12h-.852a.682.682,0,0,0-.68.64l-.171,2.738a5.124,5.124,0,0,1-10.229,0l-.171-2.738a.682.682,0,0,0-.68-.64h-.852a.682.682,0,0,0-.682.682v1.364A.682.682,0,0,0,82.682,14.727Z" transform="translate(-2.227 -3.818)"/></g></svg>