<svg xmlns="http://www.w3.org/2000/svg" width="56" height="56" viewBox="0 0 56 56"><defs><style>.a{fill:#f09d2b;}.b{fill:#fff;}</style></defs><g transform="translate(-512.001 -6659)"><circle class="a" cx="28" cy="28" r="28" transform="translate(512.001 6659)"/><path class="b" d="M929.472,153.9v-1.89a6.965,6.965,0,1,0-13.93,0v1.89a2.942,2.942,0,0,0-2.85,2.95v9.22a2.966,2.966,0,0,0,2.96,2.96h13.71a2.966,2.966,0,0,0,2.96-2.96v-9.22A2.949,2.949,0,0,0,929.472,153.9Zm-6.96-6.86a4.951,4.951,0,0,1,4.95,4.97v1.88h-9.91v-1.88A4.968,4.968,0,0,1,922.512,147.045Zm.99,15.49v1.72a1,1,0,0,1-2,0v-1.72a2.06,2.06,0,1,1,2,0Z" transform="translate(-382.691 6528.965)"/></g></svg>