<svg xmlns="http://www.w3.org/2000/svg" width="42" height="42" viewBox="0 0 42 42"><defs><style>.a{fill:#eeab10;opacity:0.996;}.b{fill:none;}.c{fill:#fff;fill-rule:evenodd;}</style></defs><g transform="translate(-296 -20)"><rect class="a" width="42" height="42" rx="4" transform="translate(296 20)"/><g transform="translate(309 33)"><rect class="b" width="16" height="16"/><path class="c" d="M29901.4,576.883a5.253,5.253,0,0,0,8.471,4.149c0,.071.1.138.1.2l4.285,4.2a.7.7,0,0,0,1,0,.894.894,0,0,0,0-.99l-4.285-4.2c0-.059-.1-.105-.2-.138a5.24,5.24,0,1,0-9.367-3.218Zm1.4,0a3.836,3.836,0,1,1,3.885,3.85A3.838,3.838,0,0,1,29902.8,576.883Z" transform="translate(-29900.4 -570.633)"/></g></g></svg>